<svg width="48" height="40" viewBox="0 0 48 40" fill="none" xmlns="http://www.w3.org/2000/svg">
<path id="Vector" d="M2.4 24.4513C1.76348 24.4513 1.15303 24.7088 0.702945 25.1672C0.252857 25.6257 9.23688e-07 26.2474 9.23688e-07 26.8957C9.23688e-07 27.544 0.252857 28.1658 0.702945 28.6242C1.15303 29.0826 1.76348 29.3402 2.4 29.3402C4.30956 29.3402 6.14091 30.1128 7.49117 31.4881C8.84143 32.8633 9.6 34.7286 9.6 36.6735C9.6 37.3218 9.85286 37.9436 10.3029 38.402C10.753 38.8604 11.3635 39.118 12 39.118C12.6365 39.118 13.247 38.8604 13.6971 38.402C14.1471 37.9436 14.4 37.3218 14.4 36.6735C14.4 33.432 13.1357 30.3232 10.8853 28.0311C8.63485 25.739 5.5826 24.4513 2.4 24.4513ZM0.696001 34.938C0.362324 35.2806 0.135699 35.7162 0.0446878 36.1898C-0.0463237 36.6634 0.00235088 37.1539 0.184578 37.5994C0.366804 38.0449 0.674427 38.4255 1.06868 38.6932C1.46293 38.9609 1.92616 39.1038 2.4 39.1038C2.87384 39.1038 3.33707 38.9609 3.73132 38.6932C4.12557 38.4255 4.4332 38.0449 4.61542 37.5994C4.79765 37.1539 4.84633 36.6634 4.75531 36.1898C4.6643 35.7162 4.43768 35.2806 4.104 34.938C3.88089 34.7088 3.61545 34.527 3.32298 34.4029C3.03052 34.2788 2.71683 34.2149 2.4 34.2149C2.08317 34.2149 1.76948 34.2788 1.47702 34.4029C1.18456 34.527 0.919112 34.7088 0.696001 34.938ZM40.8 0.00683594H7.2C5.29044 0.00683594 3.45909 0.779453 2.10883 2.15472C0.75857 3.52999 9.23688e-07 5.39525 9.23688e-07 7.34017C9.23688e-07 7.98848 0.252857 8.61023 0.702945 9.06865C1.15303 9.52707 1.76348 9.78461 2.4 9.78461C3.03652 9.78461 3.64697 9.52707 4.09706 9.06865C4.54714 8.61023 4.8 7.98848 4.8 7.34017C4.8 6.69186 5.05286 6.07011 5.50295 5.61169C5.95303 5.15326 6.56348 4.89573 7.2 4.89573H40.8C41.4365 4.89573 42.047 5.15326 42.4971 5.61169C42.9471 6.07011 43.2 6.69186 43.2 7.34017V31.7846C43.2 32.4329 42.9471 33.0547 42.4971 33.5131C42.047 33.9715 41.4365 34.2291 40.8 34.2291H31.2C30.5635 34.2291 29.953 34.4866 29.5029 34.945C29.0529 35.4034 28.8 36.0252 28.8 36.6735C28.8 37.3218 29.0529 37.9436 29.5029 38.402C29.953 38.8604 30.5635 39.118 31.2 39.118H40.8C42.7096 39.118 44.5409 38.3453 45.8912 36.9701C47.2414 35.5948 48 33.7295 48 31.7846V7.34017C48 5.39525 47.2414 3.52999 45.8912 2.15472C44.5409 0.779453 42.7096 0.00683594 40.8 0.00683594ZM2.4 14.6735C1.76348 14.6735 1.15303 14.931 0.702945 15.3895C0.252857 15.8479 9.23688e-07 16.4696 9.23688e-07 17.1179C9.23688e-07 17.7663 0.252857 18.388 0.702945 18.8464C1.15303 19.3049 1.76348 19.5624 2.4 19.5624C6.85564 19.5624 11.1288 21.3652 14.2794 24.5741C17.43 27.7831 19.2 32.1354 19.2 36.6735C19.2 37.3218 19.4529 37.9436 19.9029 38.402C20.353 38.8604 20.9635 39.118 21.6 39.118C22.2365 39.118 22.847 38.8604 23.2971 38.402C23.7471 37.9436 24 37.3218 24 36.6735C24 30.8387 21.7243 25.243 17.6735 21.1172C13.6227 16.9914 8.12868 14.6735 2.4 14.6735Z" fill="#1808A3"/>
</svg>
