<svg width="24" height="20" viewBox="0 0 24 20" fill="none" xmlns="http://www.w3.org/2000/svg">
<path id="Vector" d="M1.09091 1.38564L2.48727 0.000183105L20.7273 18.2402L19.3418 19.6365L15.9818 16.2765C14.7273 16.6911 13.3964 16.9093 12 16.9093C6.54545 16.9093 1.88727 13.5165 0 8.72746C0.752727 6.80746 1.95273 5.11655 3.48 3.77473L1.09091 1.38564ZM12 5.45473C12.868 5.45473 13.7004 5.79953 14.3142 6.41329C14.9279 7.02704 15.2727 7.85947 15.2727 8.72746C15.2733 9.09898 15.2106 9.46789 15.0873 9.81837L10.9091 5.64018C11.2596 5.51689 11.6285 5.45418 12 5.45473ZM12 0.545638C17.4545 0.545638 22.1127 3.93837 24 8.72746C23.1097 10.9891 21.5967 12.9522 19.6364 14.3893L18.0873 12.8293C19.5959 11.7857 20.8126 10.3737 21.6218 8.72746C20.7399 6.92739 19.3706 5.41084 17.6697 4.35019C15.9688 3.28954 14.0045 2.72732 12 2.72746C10.8109 2.72746 9.64364 2.92382 8.55273 3.27291L6.87273 1.60382C8.44364 0.927456 10.1782 0.545638 12 0.545638ZM2.37818 8.72746C3.26012 10.5275 4.62935 12.0441 6.33025 13.1047C8.03115 14.1654 9.99549 14.7276 12 14.7275C12.7527 14.7275 13.4945 14.6511 14.1818 14.4984L11.6945 12.0002C10.9355 11.9188 10.2271 11.58 9.68725 11.0402C9.14741 10.5004 8.80864 9.79201 8.72727 9.03291L5.01818 5.31291C3.93818 6.24018 3.03273 7.39655 2.37818 8.72746Z" fill="#999FAA"/>
</svg>
