<svg width="56" height="56" viewBox="0 0 56 56" fill="none" xmlns="http://www.w3.org/2000/svg">
<g id="Group 1000001417">
<circle id="Ellipse 104" cx="28" cy="28" r="28" fill="#E8E6F6"/>
<path id="Vector" d="M40.372 36.4647V37.7671H16.9302V36.4647L19.5348 33.8601V26.0461C19.5348 22.0089 22.1785 18.4536 26.0465 17.3075V16.9298C26.0465 16.2391 26.3209 15.5765 26.8093 15.0881C27.2978 14.5996 27.9603 14.3252 28.6511 14.3252C29.3419 14.3252 30.0044 14.5996 30.4929 15.0881C30.9813 15.5765 31.2558 16.2391 31.2558 16.9298V17.3075C35.1237 18.4536 37.7674 22.0089 37.7674 26.0461V33.8601L40.372 36.4647ZM31.2558 39.0694C31.2558 39.7602 30.9813 40.4227 30.4929 40.9111C30.0044 41.3996 29.3419 41.674 28.6511 41.674C27.9603 41.674 27.2978 41.3996 26.8093 40.9111C26.3209 40.4227 26.0465 39.7602 26.0465 39.0694" fill="#0D0D0D"/>
</g>
</svg>
