<svg width="104" height="104" viewBox="0 0 104 104" fill="none" xmlns="http://www.w3.org/2000/svg">
<g id="Group 1000001407">
<circle id="Ellipse 97" cx="52" cy="52" r="52" fill="white"/>
<g id="Group 1000001394">
<path id="Vector" d="M62.383 36.9023C60.7687 35.0623 57.8505 34.2734 54.1173 34.2734H43.2826C42.9132 34.2735 42.556 34.4052 42.2751 34.6451C41.9942 34.8849 41.808 35.2171 41.7502 35.5819L37.2388 64.1943C37.1491 64.7585 37.586 65.2694 38.1578 65.2694H44.8468L46.5267 54.6141L46.4746 54.9478C46.5943 54.1946 47.2384 53.6391 48.0012 53.6391H51.1798C57.4242 53.6391 62.3136 51.1028 63.7419 43.7658C63.7843 43.5488 63.821 43.3376 63.8527 43.1312C63.6725 43.0358 63.6725 43.0358 63.8527 43.1312C64.278 40.4194 63.8498 38.5735 62.383 36.9023Z" fill="#27346A"/>
<path id="Vector_2" d="M49.0862 42.1544C49.2691 42.0673 49.4691 42.0222 49.6716 42.0223H58.1659C59.1717 42.0223 60.1099 42.0877 60.9672 42.2257C61.2071 42.264 61.4458 42.3096 61.6829 42.3627C62.0189 42.4368 62.351 42.5276 62.6781 42.6346C63.0996 42.7753 63.4921 42.9393 63.8528 43.1312C64.278 40.4184 63.8498 38.5735 62.383 36.9023C60.7677 35.0623 57.8505 34.2734 54.1173 34.2734H43.2816C42.5187 34.2734 41.8697 34.8288 41.7502 35.5819L37.2388 64.1932C37.1491 64.7584 37.586 65.2686 38.1569 65.2686H44.8468L48.3321 43.1669C48.3664 42.9497 48.4529 42.744 48.5843 42.5676C48.7156 42.3913 48.8879 42.2494 49.0862 42.1544Z" fill="#27346A"/>
<path id="Vector_3" d="M63.7422 43.7654C62.314 51.1013 57.4246 53.6387 51.1802 53.6387H48.0006C47.2379 53.6387 46.5936 54.1942 46.4751 54.9474L44.3852 68.196C44.3071 68.6897 44.6889 69.1372 45.1885 69.1372H50.8272C51.1502 69.1371 51.4625 69.0218 51.7081 68.8119C51.9537 68.6021 52.1163 68.3116 52.1668 67.9925L52.2217 67.7052L53.2844 60.9699L53.3529 60.5976C53.4034 60.2786 53.566 59.9881 53.8116 59.7782C54.0571 59.5684 54.3695 59.4531 54.6924 59.453H55.5363C60.9985 59.453 65.2756 57.2339 66.5254 50.816C67.0471 48.1339 66.7772 45.8947 65.3971 44.3218C64.9785 43.8455 64.4587 43.452 63.8531 43.1309C63.8203 43.3382 63.7847 43.5484 63.7422 43.7654Z" fill="#2790C3"/>
<path id="Vector_4" d="M62.3585 42.5366C62.1358 42.4715 61.911 42.414 61.6845 42.3639C61.4473 42.3118 61.2086 42.2664 60.9688 42.2279C60.1106 42.089 59.1731 42.0234 58.1663 42.0234H49.6731C49.4704 42.023 49.2702 42.0685 49.0877 42.1566C48.8891 42.2513 48.7167 42.3931 48.5853 42.5695C48.4539 42.746 48.3674 42.9518 48.3335 43.1691L46.5282 54.6154L46.4761 54.949C46.5948 54.1959 47.239 53.6403 48.0019 53.6403H51.1814C57.4258 53.6403 62.3151 51.104 63.7433 43.7671C63.7859 43.5501 63.8215 43.3398 63.8543 43.1325C63.4926 42.9416 63.1012 42.7766 62.6796 42.6368C62.5732 42.6015 62.4662 42.5681 62.3586 42.5366" fill="#1F264F"/>
</g>
</g>
</svg>
