<svg width="48" height="47" viewBox="0 0 48 47" fill="none" xmlns="http://www.w3.org/2000/svg">
<path id="Vector" d="M44.3077 11.5652H35.0769C35.0769 8.62742 33.9099 5.80996 31.8326 3.73264C29.7552 1.65531 26.9378 0.488281 24 0.488281C21.0622 0.488281 18.2448 1.65531 16.1674 3.73264C14.0901 5.80996 12.9231 8.62742 12.9231 11.5652H3.69231C2.71305 11.5652 1.77389 11.9542 1.08145 12.6467C0.38901 13.3391 0 14.2783 0 15.2575V42.9498C0 43.9291 0.38901 44.8682 1.08145 45.5607C1.77389 46.2531 2.71305 46.6421 3.69231 46.6421H44.3077C45.287 46.6421 46.2261 46.2531 46.9185 45.5607C47.611 44.8682 48 43.9291 48 42.9498V15.2575C48 14.2783 47.611 13.3391 46.9185 12.6467C46.2261 11.9542 45.287 11.5652 44.3077 11.5652ZM24 4.18059C25.9585 4.18059 27.8368 4.95861 29.2217 6.34349C30.6066 7.72838 31.3846 9.60668 31.3846 11.5652H16.6154C16.6154 9.60668 17.3934 7.72838 18.7783 6.34349C20.1632 4.95861 22.0415 4.18059 24 4.18059ZM44.3077 42.9498H3.69231V15.2575H44.3077V42.9498Z" fill="#1808A3"/>
</svg>
