<svg width="48" height="47" viewBox="0 0 48 47" fill="none" xmlns="http://www.w3.org/2000/svg">
<g id="Group 1000001438">
<path id="Vector" d="M44.5711 16.6659C46.4647 16.6659 47.9997 15.1024 47.9997 13.1738C47.9997 11.2452 46.4647 9.68176 44.5711 9.68176C42.6776 9.68176 41.1426 11.2452 41.1426 13.1738C41.1426 15.1024 42.6776 16.6659 44.5711 16.6659Z" fill="#1808A3"/>
<path id="Vector_2" d="M27.4287 46.3478H15.4287V42.8558H27.4287C35.9367 42.8558 42.8573 35.807 42.8573 27.1415V20.1573H46.2859V27.1415C46.2859 37.7312 37.8259 46.3478 27.4287 46.3478Z" fill="#1808A3"/>
<path id="Vector (Stroke)" fill-rule="evenodd" clip-rule="evenodd" d="M16.9287 44.8478H27.4287C36.9716 44.8478 44.7859 36.9288 44.7859 27.1415V21.6573H44.3573V27.1415C44.3573 36.6094 36.791 44.3558 27.4287 44.3558H16.9287V44.8478ZM27.4287 46.3478C37.8259 46.3478 46.2859 37.7312 46.2859 27.1415V20.1573H42.8573V27.1415C42.8573 35.807 35.9367 42.8558 27.4287 42.8558H15.4287V46.3478H27.4287Z" fill="#1808A3"/>
<path id="Vector_3" d="M24.0001 32.3794C19.2739 32.3794 15.4287 28.463 15.4287 23.6492C15.4287 18.8354 19.2739 14.9191 24.0001 14.9191C28.7264 14.9191 32.5716 18.8354 32.5716 23.6492C32.5716 28.463 28.7264 32.3794 24.0001 32.3794ZM24.0001 18.4111C21.1647 18.4111 18.8573 20.7613 18.8573 23.6492C18.8573 26.5372 21.1647 28.8873 24.0001 28.8873C26.8356 28.8873 29.143 26.5372 29.143 23.6492C29.143 20.7613 26.8356 18.4111 24.0001 18.4111Z" fill="#1808A3"/>
<path id="Vector_4" d="M3.42857 37.6179C5.32212 37.6179 6.85714 36.0545 6.85714 34.1259C6.85714 32.1972 5.32212 30.6338 3.42857 30.6338C1.53502 30.6338 0 32.1972 0 34.1259C0 36.0545 1.53502 37.6179 3.42857 37.6179Z" fill="#1808A3"/>
<path id="Vector_5" d="M5.14244 27.1418H1.71387V20.1576C1.71387 9.56796 10.1739 0.951294 20.571 0.951294H32.571V4.44336H20.571C12.063 4.44336 5.14244 11.4921 5.14244 20.1576V27.1418Z" fill="#1808A3"/>
<path id="Vector (Stroke)_2" fill-rule="evenodd" clip-rule="evenodd" d="M3.21387 25.6418H3.64244V20.1576C3.64244 10.6897 11.2088 2.94336 20.571 2.94336H31.071V2.45129H20.571C11.0281 2.45129 3.21387 10.3703 3.21387 20.1576V25.6418ZM5.14244 27.1418V20.1576C5.14244 11.4921 12.063 4.44336 20.571 4.44336H32.571V0.951294H20.571C10.1739 0.951294 1.71387 9.56796 1.71387 20.1576V27.1418H5.14244Z" fill="#1808A3"/>
</g>
</svg>
