<svg width="28" height="28" viewBox="0 0 28 28" fill="none" xmlns="http://www.w3.org/2000/svg">
<path id="Vector" d="M26.6 12.8786H25.228C24.4538 12.8786 23.828 13.3812 23.828 14C23.828 14.6174 24.4538 15.1186 25.228 15.1186H26.6C27.3728 15.1186 28 14.6188 28 14C28 13.3826 27.3714 12.8786 26.6 12.8786ZM14 6.3C12.9879 6.29686 11.9852 6.49388 11.0496 6.87973C10.114 7.26557 9.26391 7.83263 8.54827 8.54827C7.83263 9.26391 7.26557 10.114 6.87973 11.0496C6.49388 11.9852 6.29686 12.9879 6.3 14C6.3 18.2714 9.7286 21.7 14 21.7C18.27 21.7 21.7 18.2714 21.7 14C21.7 9.7286 18.2686 6.3 14 6.3ZM14 19.6C10.9046 19.6 8.4 17.0926 8.4 14C8.4 10.9046 10.9046 8.4 14 8.4C15.4852 8.4 16.9096 8.99 17.9598 10.0402C19.01 11.0904 19.6 12.5148 19.6 14C19.6 15.4852 19.01 16.9096 17.9598 17.9598C16.9096 19.01 15.4852 19.6 14 19.6ZM4.2 14C4.2 13.3826 3.5714 12.8786 2.8 12.8786H1.4C0.6258 12.8786 0 13.3812 0 14C0 14.6174 0.6258 15.1186 1.4 15.1186H2.8C3.5714 15.1186 4.2 14.6174 4.2 14ZM14 4.2C14.6174 4.2 15.1186 3.5742 15.1186 2.8V1.4C15.1186 0.6258 14.6174 0 14 0C13.3812 0 12.8786 0.6258 12.8786 1.4V2.8C12.8786 3.5742 13.3812 4.2 14 4.2ZM14 23.8C13.3812 23.8 12.8786 24.4258 12.8786 25.2V26.6C12.8786 27.3742 13.3812 28 14 28C14.6174 28 15.1186 27.3742 15.1186 26.6V25.2C15.1186 24.4258 14.6174 23.8 14 23.8ZM24.311 5.2724C24.8584 4.725 24.9466 3.927 24.5098 3.4902C24.073 3.0534 23.2736 3.143 22.729 3.6904L21.749 4.669C21.2016 5.2164 21.1134 6.0144 21.5502 6.4512C21.987 6.888 22.7864 6.7984 23.3324 6.251L24.311 5.2724ZM4.6676 21.7462L3.6876 22.7276C3.1402 23.275 3.052 24.0702 3.4888 24.507C3.9256 24.9438 4.725 24.857 5.2696 24.3096L6.2496 23.331C6.797 22.7836 6.8852 21.9856 6.4484 21.5474C6.0116 21.1092 5.2122 21.2016 4.6676 21.7462ZM5.271 3.689C4.725 3.1416 3.9256 3.052 3.4888 3.4888C3.052 3.9256 3.1416 4.725 3.6862 5.2724L4.6662 6.251C5.2136 6.7984 6.0102 6.888 6.447 6.4512C6.8838 6.0144 6.7956 5.215 6.2496 4.669L5.271 3.689ZM21.7476 23.3324L22.7276 24.311C23.275 24.8584 24.0716 24.9452 24.5084 24.5112C24.9452 24.0744 24.857 23.275 24.3096 22.729L23.331 21.7504C22.7836 21.203 21.9856 21.1134 21.5474 21.5502C21.1092 21.987 21.2002 22.785 21.7476 23.3324Z" fill="black"/>
</svg>
