<svg width="37" height="37" viewBox="0 0 37 37" fill="none" xmlns="http://www.w3.org/2000/svg">
<g id="logos:bitcoin" clip-path="url(#clip0_1080_4033)">
<path id="Vector" d="M36.4466 22.9738C33.9748 32.8898 23.9283 38.9176 14.0264 36.4457C4.11016 33.9739 -1.91766 23.9279 0.554258 14.0262C3.02603 4.11016 13.0579 -1.91766 22.9742 0.554259C32.8761 3.01158 38.9185 13.0577 36.4466 22.9738Z" fill="url(#paint0_linear_1080_4033)"/>
<path id="Vector_2" d="M27.3084 16.1941C27.6698 13.7371 25.8053 12.4074 23.2327 11.5258L24.0709 8.18711L22.0475 7.68125L21.2381 10.9332C20.7034 10.8031 20.1542 10.673 19.6049 10.5574L20.4143 7.29102L18.3909 6.78516L17.567 10.1094C17.119 10.0082 16.6854 9.90703 16.2663 9.80586V9.79141L13.4624 9.09766L12.9276 11.2656C12.9276 11.2656 14.4307 11.6125 14.4018 11.627C15.2256 11.8293 15.3702 12.3785 15.3413 12.8121L14.3874 16.6133C14.4452 16.6277 14.5174 16.6422 14.6041 16.6855C14.5319 16.6711 14.4596 16.6566 14.3874 16.6277L13.0577 21.9465C12.9565 22.1922 12.6963 22.568 12.1327 22.4234C12.1471 22.4523 10.6584 22.0621 10.6584 22.0621L9.64673 24.3891L12.2916 25.0539C12.7831 25.184 13.26 25.2996 13.737 25.4297L12.8987 28.7973L14.9221 29.3031L15.7604 25.9645C16.3096 26.109 16.8588 26.2535 17.3792 26.3836L16.5553 29.7078L18.5788 30.2137L19.417 26.8461C22.8858 27.4965 25.4874 27.2363 26.5713 24.1C27.453 21.5852 26.528 20.1254 24.7069 19.1715C26.051 18.868 27.0483 17.9863 27.3084 16.1941ZM22.669 22.698C22.0475 25.2129 17.7983 23.8543 16.4252 23.5074L17.5381 19.0414C18.9112 19.3883 23.3338 20.0676 22.669 22.698ZM23.3049 16.1508C22.7268 18.4488 19.2002 17.2781 18.0584 16.9891L19.0702 12.9422C20.212 13.2313 23.8975 13.766 23.3049 16.1508Z" fill="white"/>
</g>
<defs>
<linearGradient id="paint0_linear_1080_4033" x1="1849" y1="-0.887999" x2="1849" y2="3699.63" gradientUnits="userSpaceOnUse">
<stop stop-color="#F9AA4B"/>
<stop offset="1" stop-color="#F7931A"/>
</linearGradient>
<clipPath id="clip0_1080_4033">
<rect width="37" height="37" fill="white"/>
</clipPath>
</defs>
</svg>
