<svg width="504" height="278" viewBox="0 0 504 278" fill="none" xmlns="http://www.w3.org/2000/svg">
<rect x="0.5" y="0.5" width="503" height="277" rx="7.5" fill="white"/>
<path d="M274.791 112H229.149C228.049 112 226.993 112.515 226.215 113.433C225.437 114.351 225 115.595 225 116.893V160.926C225 162.223 225.437 163.468 226.215 164.385C226.993 165.303 228.049 165.818 229.149 165.818H274.791C275.891 165.818 276.946 165.303 277.725 164.385C278.503 163.468 278.94 162.223 278.94 160.926V116.893C278.94 115.595 278.503 114.351 277.725 113.433C276.946 112.515 275.891 112 274.791 112ZM274.791 116.893V148.312L268.03 140.343C267.645 139.889 267.187 139.528 266.684 139.282C266.18 139.036 265.641 138.91 265.096 138.91C264.551 138.91 264.011 139.036 263.508 139.282C263.004 139.528 262.547 139.889 262.161 140.343L256.975 146.459L245.565 133.004C244.786 132.088 243.732 131.573 242.632 131.573C241.532 131.573 240.477 132.088 239.699 133.004L229.149 145.444V116.893H274.791ZM229.149 152.364L242.634 136.463L263.38 160.926H229.149V152.364ZM274.791 160.926H269.249L259.913 149.917L265.1 143.802L274.791 155.232V160.926ZM256.119 130.347C256.119 129.621 256.302 128.912 256.644 128.308C256.986 127.705 257.472 127.235 258.04 126.957C258.609 126.679 259.234 126.607 259.838 126.748C260.442 126.89 260.996 127.239 261.431 127.752C261.867 128.266 262.163 128.919 262.283 129.631C262.403 130.343 262.342 131.081 262.106 131.751C261.871 132.422 261.472 132.995 260.96 133.398C260.448 133.801 259.847 134.017 259.231 134.017C258.406 134.017 257.614 133.63 257.031 132.942C256.447 132.254 256.119 131.32 256.119 130.347Z" fill="#737373"/>
<rect x="0.5" y="0.5" width="503" height="277" rx="7.5" stroke="black" stroke-dasharray="8 8"/>
</svg>
